<mxfile host="Electron" modified="2023-09-12T21:57:25.013Z" agent="Mozilla/5.0 (X11; Linux x86_64) AppleWebKit/537.36 (KHTML, like Gecko) draw.io/21.3.7 Chrome/112.0.5615.204 Electron/24.5.0 Safari/537.36" etag="OLPkhMgB_AmxLXXNwekx" version="21.3.7" type="device">
  <diagram name="Page-1" id="xDFV5pvu1kvxSuQ7Cg2e">
    <mxGraphModel dx="794" dy="1198" grid="1" gridSize="10" guides="1" tooltips="1" connect="1" arrows="1" fold="1" page="1" pageScale="1" pageWidth="1654" pageHeight="2336" math="0" shadow="0">
      <root>
        <mxCell id="0" />
        <mxCell id="1" parent="0" />
        <mxCell id="BZhtztDHGyf2tm-LgQFS-1" value="&lt;font style=&quot;font-size: 22px;&quot;&gt;Ã–ffentliches&lt;br&gt;Netz&lt;/font&gt;" style="ellipse;shape=cloud;whiteSpace=wrap;html=1;" vertex="1" parent="1">
          <mxGeometry x="10" y="300" width="230" height="150" as="geometry" />
        </mxCell>
        <mxCell id="BZhtztDHGyf2tm-LgQFS-2" value="&lt;font style=&quot;font-size: 18px;&quot;&gt;FW&lt;br&gt;1&lt;/font&gt;" style="whiteSpace=wrap;html=1;aspect=fixed;" vertex="1" parent="1">
          <mxGeometry x="330" y="335" width="80" height="80" as="geometry" />
        </mxCell>
        <mxCell id="BZhtztDHGyf2tm-LgQFS-3" value="&lt;font style=&quot;font-size: 24px;&quot;&gt;DMZ&lt;/font&gt;" style="ellipse;shape=cloud;whiteSpace=wrap;html=1;" vertex="1" parent="1">
          <mxGeometry x="480" y="270" width="280" height="190" as="geometry" />
        </mxCell>
        <mxCell id="BZhtztDHGyf2tm-LgQFS-4" value="&lt;font style=&quot;font-size: 18px;&quot;&gt;FW&lt;br&gt;2&lt;br&gt;&lt;/font&gt;" style="whiteSpace=wrap;html=1;aspect=fixed;" vertex="1" parent="1">
          <mxGeometry x="810" y="335" width="80" height="80" as="geometry" />
        </mxCell>
        <mxCell id="BZhtztDHGyf2tm-LgQFS-5" value="&lt;font style=&quot;font-size: 24px;&quot;&gt;Privates&lt;br&gt;Netz&lt;br&gt;&lt;/font&gt;" style="ellipse;shape=cloud;whiteSpace=wrap;html=1;" vertex="1" parent="1">
          <mxGeometry x="950" y="300" width="230" height="150" as="geometry" />
        </mxCell>
        <mxCell id="BZhtztDHGyf2tm-LgQFS-6" value="&lt;span style=&quot;font-size: 18px;&quot;&gt;VPN-&lt;br&gt;GW&lt;br&gt;&lt;/span&gt;" style="whiteSpace=wrap;html=1;aspect=fixed;" vertex="1" parent="1">
          <mxGeometry x="490" y="300" width="50" height="50" as="geometry" />
        </mxCell>
        <mxCell id="BZhtztDHGyf2tm-LgQFS-7" value="&lt;span style=&quot;font-size: 14px;&quot;&gt;Mail-&lt;br&gt;Server&lt;br&gt;&lt;/span&gt;" style="whiteSpace=wrap;html=1;aspect=fixed;" vertex="1" parent="1">
          <mxGeometry x="520" y="410" width="50" height="50" as="geometry" />
        </mxCell>
        <mxCell id="BZhtztDHGyf2tm-LgQFS-8" value="&lt;span style=&quot;font-size: 18px;&quot;&gt;Proxy&lt;br&gt;&lt;/span&gt;" style="whiteSpace=wrap;html=1;aspect=fixed;" vertex="1" parent="1">
          <mxGeometry x="660" y="355" width="60" height="60" as="geometry" />
        </mxCell>
        <mxCell id="BZhtztDHGyf2tm-LgQFS-9" value="&lt;font style=&quot;font-size: 15px;&quot;&gt;Web-&lt;br&gt;Server&lt;/font&gt;" style="whiteSpace=wrap;html=1;aspect=fixed;" vertex="1" parent="1">
          <mxGeometry x="660" y="270" width="50" height="50" as="geometry" />
        </mxCell>
        <mxCell id="BZhtztDHGyf2tm-LgQFS-12" value="" style="endArrow=classic;html=1;rounded=0;exitX=0.604;exitY=0.953;exitDx=0;exitDy=0;exitPerimeter=0;entryX=0.55;entryY=0.95;entryDx=0;entryDy=0;entryPerimeter=0;fillColor=#d80073;strokeColor=#A50040;strokeWidth=3;noJump=0;" edge="1" parent="1" source="BZhtztDHGyf2tm-LgQFS-1" target="BZhtztDHGyf2tm-LgQFS-5">
          <mxGeometry width="50" height="50" relative="1" as="geometry">
            <mxPoint x="400" y="520" as="sourcePoint" />
            <mxPoint x="670" y="560" as="targetPoint" />
            <Array as="points">
              <mxPoint x="370" y="490" />
              <mxPoint x="600" y="510" />
              <mxPoint x="860" y="490" />
            </Array>
          </mxGeometry>
        </mxCell>
        <mxCell id="BZhtztDHGyf2tm-LgQFS-14" value="" style="endArrow=none;html=1;rounded=0;entryX=0.16;entryY=0.55;entryDx=0;entryDy=0;entryPerimeter=0;exitX=1.013;exitY=0.588;exitDx=0;exitDy=0;exitPerimeter=0;" edge="1" parent="1" source="BZhtztDHGyf2tm-LgQFS-4" target="BZhtztDHGyf2tm-LgQFS-5">
          <mxGeometry width="50" height="50" relative="1" as="geometry">
            <mxPoint x="620" y="550" as="sourcePoint" />
            <mxPoint x="670" y="500" as="targetPoint" />
          </mxGeometry>
        </mxCell>
        <mxCell id="BZhtztDHGyf2tm-LgQFS-15" value="" style="endArrow=none;html=1;rounded=0;entryX=0;entryY=0.5;entryDx=0;entryDy=0;exitX=0.875;exitY=0.5;exitDx=0;exitDy=0;exitPerimeter=0;" edge="1" parent="1" source="BZhtztDHGyf2tm-LgQFS-3" target="BZhtztDHGyf2tm-LgQFS-4">
          <mxGeometry width="50" height="50" relative="1" as="geometry">
            <mxPoint x="731" y="374.5" as="sourcePoint" />
            <mxPoint x="827" y="375.5" as="targetPoint" />
          </mxGeometry>
        </mxCell>
        <mxCell id="BZhtztDHGyf2tm-LgQFS-17" value="" style="endArrow=none;html=1;rounded=0;entryX=0.16;entryY=0.55;entryDx=0;entryDy=0;entryPerimeter=0;exitX=1;exitY=0.5;exitDx=0;exitDy=0;" edge="1" parent="1" source="BZhtztDHGyf2tm-LgQFS-2" target="BZhtztDHGyf2tm-LgQFS-3">
          <mxGeometry width="50" height="50" relative="1" as="geometry">
            <mxPoint x="620" y="550" as="sourcePoint" />
            <mxPoint x="670" y="500" as="targetPoint" />
          </mxGeometry>
        </mxCell>
        <mxCell id="BZhtztDHGyf2tm-LgQFS-18" value="" style="endArrow=none;html=1;rounded=0;exitX=0.875;exitY=0.5;exitDx=0;exitDy=0;exitPerimeter=0;" edge="1" parent="1" source="BZhtztDHGyf2tm-LgQFS-1" target="BZhtztDHGyf2tm-LgQFS-2">
          <mxGeometry width="50" height="50" relative="1" as="geometry">
            <mxPoint x="240" y="425" as="sourcePoint" />
            <mxPoint x="310.71067811865476" y="375" as="targetPoint" />
          </mxGeometry>
        </mxCell>
        <mxCell id="BZhtztDHGyf2tm-LgQFS-21" value="" style="verticalLabelPosition=bottom;verticalAlign=top;html=1;shape=mxgraph.basic.x;fillColor=#a20025;fontColor=#ffffff;strokeColor=#6F0000;" vertex="1" parent="1">
          <mxGeometry x="340" y="470" width="30" height="30" as="geometry" />
        </mxCell>
        <mxCell id="BZhtztDHGyf2tm-LgQFS-22" value="" style="verticalLabelPosition=bottom;verticalAlign=top;html=1;shape=mxgraph.basic.x;fillColor=#a20025;fontColor=#ffffff;strokeColor=#6F0000;" vertex="1" parent="1">
          <mxGeometry x="480" y="490" width="30" height="30" as="geometry" />
        </mxCell>
        <mxCell id="BZhtztDHGyf2tm-LgQFS-23" value="" style="verticalLabelPosition=bottom;verticalAlign=top;html=1;shape=mxgraph.basic.x;fillColor=#a20025;fontColor=#ffffff;strokeColor=#6F0000;" vertex="1" parent="1">
          <mxGeometry x="740" y="490" width="30" height="30" as="geometry" />
        </mxCell>
        <mxCell id="BZhtztDHGyf2tm-LgQFS-27" value="" style="verticalLabelPosition=bottom;verticalAlign=top;html=1;shape=mxgraph.basic.x;fillColor=#a20025;fontColor=#ffffff;strokeColor=#6F0000;" vertex="1" parent="1">
          <mxGeometry x="930" y="450" width="30" height="30" as="geometry" />
        </mxCell>
        <mxCell id="BZhtztDHGyf2tm-LgQFS-30" value="" style="endArrow=classic;html=1;rounded=0;entryX=0;entryY=0.5;entryDx=0;entryDy=0;exitX=0.88;exitY=0.25;exitDx=0;exitDy=0;exitPerimeter=0;strokeWidth=2;fillColor=#60a917;strokeColor=#2D7600;" edge="1" parent="1" source="BZhtztDHGyf2tm-LgQFS-1" target="BZhtztDHGyf2tm-LgQFS-6">
          <mxGeometry width="50" height="50" relative="1" as="geometry">
            <mxPoint x="240" y="320" as="sourcePoint" />
            <mxPoint x="290" y="270" as="targetPoint" />
            <Array as="points">
              <mxPoint x="260" y="290" />
              <mxPoint x="330" y="280" />
              <mxPoint x="420" y="290" />
            </Array>
          </mxGeometry>
        </mxCell>
        <mxCell id="BZhtztDHGyf2tm-LgQFS-33" value="" style="endArrow=classic;html=1;rounded=0;entryX=0;entryY=0;entryDx=0;entryDy=0;exitX=0.743;exitY=0.193;exitDx=0;exitDy=0;exitPerimeter=0;strokeWidth=2;fillColor=#60a917;strokeColor=#2D7600;" edge="1" parent="1" source="BZhtztDHGyf2tm-LgQFS-1" target="BZhtztDHGyf2tm-LgQFS-9">
          <mxGeometry width="50" height="50" relative="1" as="geometry">
            <mxPoint x="290" y="240" as="sourcePoint" />
            <mxPoint x="340" y="190" as="targetPoint" />
            <Array as="points">
              <mxPoint x="280" y="260" />
              <mxPoint x="400" y="240" />
              <mxPoint x="540" y="250" />
            </Array>
          </mxGeometry>
        </mxCell>
        <mxCell id="BZhtztDHGyf2tm-LgQFS-34" value="" style="endArrow=classic;html=1;rounded=0;entryX=0;entryY=0.5;entryDx=0;entryDy=0;exitX=0.8;exitY=0.8;exitDx=0;exitDy=0;exitPerimeter=0;strokeWidth=2;fillColor=#60a917;strokeColor=#2D7600;" edge="1" parent="1" source="BZhtztDHGyf2tm-LgQFS-1" target="BZhtztDHGyf2tm-LgQFS-7">
          <mxGeometry width="50" height="50" relative="1" as="geometry">
            <mxPoint x="202" y="628" as="sourcePoint" />
            <mxPoint x="480" y="615" as="targetPoint" />
            <Array as="points">
              <mxPoint x="300" y="450" />
              <mxPoint x="350" y="450" />
              <mxPoint x="420" y="450" />
            </Array>
          </mxGeometry>
        </mxCell>
        <mxCell id="BZhtztDHGyf2tm-LgQFS-35" value="" style="endArrow=classic;html=1;rounded=0;entryX=0;entryY=0.5;entryDx=0;entryDy=0;exitX=0.913;exitY=0.4;exitDx=0;exitDy=0;exitPerimeter=0;strokeWidth=2;fillColor=#60a917;strokeColor=#2D7600;" edge="1" parent="1" source="BZhtztDHGyf2tm-LgQFS-1" target="BZhtztDHGyf2tm-LgQFS-8">
          <mxGeometry width="50" height="50" relative="1" as="geometry">
            <mxPoint x="232" y="358" as="sourcePoint" />
            <mxPoint x="510" y="345" as="targetPoint" />
            <Array as="points">
              <mxPoint x="290" y="340" />
              <mxPoint x="340" y="340" />
              <mxPoint x="400" y="340" />
            </Array>
          </mxGeometry>
        </mxCell>
        <mxCell id="BZhtztDHGyf2tm-LgQFS-36" value="" style="endArrow=classic;html=1;rounded=0;entryX=0;entryY=0.5;entryDx=0;entryDy=0;exitX=0.96;exitY=0.7;exitDx=0;exitDy=0;exitPerimeter=0;strokeWidth=2;fillColor=#60a917;strokeColor=#2D7600;" edge="1" parent="1" source="BZhtztDHGyf2tm-LgQFS-1" target="BZhtztDHGyf2tm-LgQFS-8">
          <mxGeometry width="50" height="50" relative="1" as="geometry">
            <mxPoint x="204" y="430" as="sourcePoint" />
            <mxPoint x="530" y="445" as="targetPoint" />
            <Array as="points">
              <mxPoint x="320" y="430" />
              <mxPoint x="440" y="430" />
            </Array>
          </mxGeometry>
        </mxCell>
        <mxCell id="BZhtztDHGyf2tm-LgQFS-37" value="" style="endArrow=classic;html=1;rounded=0;entryX=1;entryY=0.5;entryDx=0;entryDy=0;exitX=0.07;exitY=0.4;exitDx=0;exitDy=0;exitPerimeter=0;fillColor=#60a917;strokeColor=#2D7600;strokeWidth=2;" edge="1" parent="1" source="BZhtztDHGyf2tm-LgQFS-5" target="BZhtztDHGyf2tm-LgQFS-8">
          <mxGeometry width="50" height="50" relative="1" as="geometry">
            <mxPoint x="500" y="550" as="sourcePoint" />
            <mxPoint x="550" y="500" as="targetPoint" />
            <Array as="points">
              <mxPoint x="910" y="340" />
              <mxPoint x="840" y="340" />
              <mxPoint x="770" y="350" />
            </Array>
          </mxGeometry>
        </mxCell>
        <mxCell id="BZhtztDHGyf2tm-LgQFS-38" value="" style="endArrow=classic;html=1;rounded=0;entryX=1;entryY=0.5;entryDx=0;entryDy=0;exitX=0.13;exitY=0.77;exitDx=0;exitDy=0;exitPerimeter=0;fillColor=#60a917;strokeColor=#2D7600;strokeWidth=2;" edge="1" parent="1" source="BZhtztDHGyf2tm-LgQFS-5" target="BZhtztDHGyf2tm-LgQFS-8">
          <mxGeometry width="50" height="50" relative="1" as="geometry">
            <mxPoint x="800" y="480" as="sourcePoint" />
            <mxPoint x="850" y="430" as="targetPoint" />
            <Array as="points">
              <mxPoint x="920" y="430" />
              <mxPoint x="850" y="430" />
              <mxPoint x="780" y="416" />
            </Array>
          </mxGeometry>
        </mxCell>
      </root>
    </mxGraphModel>
  </diagram>
</mxfile>
